<?xml version="1.0" encoding="utf-8"?>
<!-- Generator: Adobe Illustrator 16.0.4, SVG Export Plug-In . SVG Version: 6.00 Build 0)  -->
<!DOCTYPE svg PUBLIC "-//W3C//DTD SVG 1.1//EN" "http://www.w3.org/Graphics/SVG/1.1/DTD/svg11.dtd">
<svg version="1.1" id="Layer_1" xmlns="http://www.w3.org/2000/svg" xmlns:xlink="http://www.w3.org/1999/xlink" x="0px" y="0px"
	 width="240.081px" height="240.084px" viewBox="0 0 240.081 240.084" enable-background="new 0 0 240.081 240.084"
	 xml:space="preserve">
<g>
	<defs>
		<rect id="SVGID_1_" width="240.081" height="240.084"/>
	</defs>
	<clipPath id="SVGID_2_">
		<use xlink:href="#SVGID_1_"  overflow="visible"/>
	</clipPath>
	<path clip-path="url(#SVGID_2_)" fill-rule="evenodd" clip-rule="evenodd" fill="#C0C0C0" d="M120.026,37.461
		c-2.705,0-5.403,0.133-8.095,0.398c-2.69,0.265-5.363,0.661-8.016,1.189c-2.652,0.528-5.272,1.184-7.86,1.969
		s-5.131,1.696-7.629,2.731c-2.499,1.035-4.94,2.19-7.326,3.464c-2.385,1.275-4.701,2.664-6.95,4.167
		c-2.249,1.502-4.418,3.111-6.509,4.827c-2.09,1.716-4.091,3.53-6.004,5.442c-1.912,1.912-3.726,3.914-5.441,6.005
		c-1.715,2.091-3.325,4.26-4.827,6.509c-1.502,2.248-2.891,4.565-4.166,6.951c-1.274,2.385-2.43,4.826-3.465,7.325
		s-1.944,5.042-2.729,7.63c-0.785,2.589-1.442,5.209-1.969,7.86c-0.528,2.653-0.923,5.325-1.188,8.017s-0.398,5.39-0.398,8.094
		c0,2.706,0.133,5.403,0.398,8.094s0.662,5.364,1.189,8.018c0.528,2.65,1.184,5.272,1.97,7.859c0.784,2.588,1.695,5.135,2.73,7.635
		c1.035,2.498,2.19,4.941,3.465,7.326c1.274,2.385,2.664,4.701,4.166,6.951c1.502,2.248,3.112,4.418,4.828,6.51
		c1.716,2.09,3.53,4.09,5.443,6.004c1.913,1.912,3.914,3.725,6.004,5.441s4.261,3.324,6.509,4.828
		c2.249,1.502,4.566,2.893,6.951,4.166c2.385,1.275,4.827,2.43,7.326,3.465s5.042,1.945,7.63,2.729
		c2.589,0.787,5.208,1.441,7.861,1.969c2.653,0.529,5.325,0.926,8.017,1.189c2.691,0.268,5.389,0.398,8.093,0.398
		c2.705,0,5.403-0.133,8.095-0.398c2.691-0.264,5.364-0.66,8.017-1.189c2.652-0.527,5.272-1.184,7.86-1.969
		c2.589-0.785,5.133-1.695,7.63-2.73c2.499-1.035,4.941-2.189,7.326-3.465c2.386-1.273,4.702-2.664,6.95-4.166
		c2.25-1.502,4.42-3.111,6.51-4.826c2.091-1.717,4.093-3.531,6.005-5.443c1.911-1.912,3.727-3.914,5.441-6.004
		c1.716-2.092,3.325-4.262,4.829-6.51c1.502-2.248,2.891-4.566,4.166-6.951c1.274-2.385,2.43-4.828,3.464-7.326
		c1.035-2.5,1.945-5.045,2.731-7.635c0.784-2.585,1.439-5.207,1.968-7.859c0.527-2.652,0.925-5.325,1.189-8.016
		s0.397-5.389,0.397-8.094c-0.001-2.704-0.133-5.402-0.397-8.094c-0.266-2.692-0.662-5.364-1.189-8.017
		c-0.528-2.652-1.185-5.272-1.97-7.861c-0.784-2.588-1.695-5.132-2.73-7.63c-1.035-2.499-2.189-4.941-3.465-7.325
		c-1.274-2.387-2.664-4.703-4.166-6.951c-1.504-2.249-3.111-4.419-4.827-6.51c-1.717-2.091-3.53-4.092-5.442-6.005
		c-1.913-1.912-3.914-3.727-6.005-5.442s-4.26-3.324-6.509-4.826c-2.249-1.504-4.565-2.892-6.951-4.167
		c-2.385-1.275-4.827-2.429-7.325-3.464c-2.499-1.035-5.043-1.946-7.631-2.73c-2.588-0.786-5.208-1.441-7.86-1.969
		c-2.653-0.528-5.324-0.925-8.017-1.189c-2.691-0.266-5.389-0.398-8.094-0.398 M120.026,40.637c-2.6,0-5.194,0.128-7.782,0.383
		c-2.588,0.255-5.157,0.636-7.708,1.144c-2.55,0.507-5.07,1.138-7.558,1.894c-2.488,0.754-4.934,1.629-7.336,2.625
		c-2.402,0.995-4.75,2.106-7.042,3.331c-2.293,1.227-4.521,2.562-6.684,4.007c-2.162,1.444-4.248,2.992-6.258,4.642
		s-3.935,3.394-5.774,5.232s-3.583,3.765-5.232,5.774c-1.65,2.01-3.197,4.097-4.641,6.259c-1.445,2.162-2.78,4.39-4.006,6.684
		c-1.225,2.294-2.336,4.642-3.331,7.044c-0.996,2.402-1.87,4.848-2.625,7.337c-0.755,2.488-1.386,5.007-1.893,7.559
		c-0.508,2.55-0.888,5.119-1.143,7.706c-0.255,2.589-0.383,5.184-0.383,7.783c0.001,2.602,0.128,5.194,0.383,7.784
		c0.255,2.588,0.636,5.157,1.144,7.708c0.507,2.551,1.138,5.07,1.893,7.559c0.754,2.49,1.63,4.936,2.625,7.34
		c0.995,2.402,2.105,4.752,3.332,7.045c1.226,2.293,2.561,4.521,4.006,6.684s2.992,4.248,4.642,6.26
		c1.65,2.01,3.394,3.936,5.233,5.773c1.839,1.838,3.763,3.582,5.773,5.232c2.011,1.65,4.097,3.197,6.259,4.643
		c2.163,1.445,4.39,2.779,6.684,4.006c2.293,1.225,4.642,2.336,7.044,3.332c2.403,0.996,4.848,1.869,7.336,2.623
		c2.489,0.756,5.008,1.387,7.559,1.895c2.55,0.506,5.12,0.889,7.708,1.145c2.587,0.254,5.182,0.381,7.782,0.381
		c2.603,0,5.195-0.127,7.784-0.383c2.587-0.254,5.157-0.637,7.707-1.143c2.552-0.51,5.071-1.139,7.558-1.895
		c2.49-0.754,4.935-1.629,7.338-2.625c2.402-0.994,4.75-2.107,7.045-3.332c2.293-1.227,4.521-2.561,6.683-4.006
		c2.162-1.445,4.248-2.992,6.259-4.643c2.011-1.648,3.935-3.393,5.774-5.232c1.838-1.838,3.583-3.764,5.232-5.773
		c1.65-2.01,3.197-4.096,4.642-6.26c1.445-2.162,2.781-4.389,4.007-6.684c1.226-2.293,2.336-4.641,3.332-7.045
		c0.994-2.402,1.869-4.85,2.624-7.338s1.386-5.008,1.894-7.559c0.507-2.551,0.888-5.12,1.143-7.708
		c0.256-2.59,0.383-5.182,0.383-7.784c0-2.6-0.127-5.195-0.383-7.783c-0.255-2.588-0.636-5.156-1.143-7.708
		c-0.509-2.55-1.14-5.069-1.895-7.559c-0.754-2.488-1.63-4.934-2.625-7.337c-0.995-2.402-2.106-4.75-3.332-7.044
		c-1.226-2.293-2.561-4.521-4.005-6.684c-1.446-2.162-2.993-4.248-4.644-6.259c-1.649-2.01-3.394-3.935-5.232-5.773
		c-1.84-1.838-3.764-3.583-5.773-5.233c-2.01-1.649-4.096-3.197-6.259-4.641c-2.162-1.445-4.39-2.78-6.684-4.007
		c-2.293-1.225-4.642-2.336-7.043-3.332c-2.403-0.995-4.849-1.87-7.338-2.625c-2.488-0.755-5.008-1.387-7.558-1.894
		c-2.55-0.507-5.12-0.888-7.708-1.144c-2.588-0.255-5.183-0.382-7.783-0.382"/>
	<path clip-path="url(#SVGID_2_)" fill="none" stroke="#868686" stroke-width="0.6352" d="M120.026,37.461
		c-2.705,0-5.403,0.133-8.095,0.398c-2.69,0.265-5.363,0.661-8.015,1.189s-5.273,1.184-7.86,1.969
		c-2.588,0.785-5.131,1.696-7.63,2.731c-2.499,1.035-4.94,2.19-7.325,3.464c-2.385,1.275-4.702,2.664-6.95,4.167
		s-4.418,3.111-6.509,4.827c-2.09,1.716-4.092,3.53-6.004,5.442c-1.912,1.912-3.726,3.914-5.441,6.005
		c-1.715,2.091-3.325,4.26-4.827,6.509c-1.502,2.248-2.891,4.565-4.166,6.951c-1.274,2.385-2.43,4.826-3.465,7.325
		s-1.944,5.043-2.729,7.63c-0.785,2.589-1.442,5.209-1.969,7.86c-0.528,2.653-0.923,5.325-1.188,8.017s-0.398,5.39-0.398,8.094
		c0,2.706,0.133,5.403,0.398,8.094s0.662,5.364,1.189,8.018c0.528,2.65,1.184,5.272,1.97,7.859c0.784,2.588,1.695,5.135,2.73,7.635
		c1.035,2.498,2.19,4.941,3.465,7.326c1.274,2.385,2.664,4.701,4.166,6.951c1.502,2.248,3.112,4.418,4.828,6.51
		c1.716,2.09,3.53,4.09,5.443,6.004c1.913,1.912,3.914,3.725,6.004,5.441s4.261,3.324,6.509,4.828
		c2.249,1.502,4.566,2.893,6.951,4.166c2.385,1.275,4.828,2.43,7.326,3.465c2.499,1.035,5.042,1.945,7.63,2.729
		c2.589,0.787,5.208,1.443,7.861,1.969c2.653,0.529,5.325,0.926,8.017,1.189c2.691,0.268,5.389,0.398,8.093,0.398
		c2.705,0,5.403-0.133,8.095-0.398c2.691-0.264,5.364-0.66,8.017-1.189c2.652-0.527,5.272-1.184,7.86-1.969
		c2.589-0.785,5.133-1.695,7.63-2.73c2.499-1.035,4.942-2.189,7.326-3.465c2.386-1.273,4.702-2.664,6.95-4.166
		c2.25-1.502,4.42-3.111,6.51-4.826c2.091-1.717,4.093-3.531,6.005-5.443c1.911-1.912,3.727-3.914,5.441-6.004
		c1.716-2.092,3.325-4.262,4.829-6.51c1.502-2.248,2.891-4.566,4.166-6.951c1.274-2.385,2.43-4.828,3.464-7.326
		c1.035-2.5,1.945-5.045,2.731-7.635c0.784-2.585,1.439-5.207,1.968-7.859c0.527-2.652,0.925-5.325,1.189-8.016
		s0.397-5.389,0.397-8.094c-0.001-2.704-0.133-5.402-0.397-8.094c-0.266-2.692-0.662-5.364-1.189-8.017
		c-0.528-2.652-1.185-5.272-1.97-7.861c-0.784-2.588-1.695-5.132-2.73-7.63c-1.035-2.499-2.189-4.941-3.465-7.325
		c-1.274-2.387-2.664-4.703-4.166-6.951c-1.504-2.249-3.111-4.419-4.827-6.51c-1.717-2.091-3.53-4.092-5.443-6.005
		c-1.912-1.912-3.913-3.727-6.004-5.442s-4.26-3.324-6.509-4.826c-2.249-1.503-4.565-2.892-6.951-4.167
		c-2.385-1.275-4.827-2.429-7.325-3.464c-2.499-1.035-5.042-1.946-7.631-2.73c-2.588-0.786-5.208-1.441-7.86-1.969
		c-2.653-0.528-5.324-0.924-8.017-1.189c-2.691-0.266-5.389-0.398-8.094-0.398 M120.026,40.637c-2.6,0-5.194,0.128-7.782,0.383
		s-5.157,0.636-7.708,1.144c-2.55,0.507-5.07,1.138-7.558,1.894c-2.488,0.754-4.933,1.629-7.336,2.625
		c-2.402,0.995-4.75,2.106-7.042,3.331c-2.293,1.227-4.521,2.562-6.684,4.007c-2.162,1.444-4.248,2.992-6.258,4.642
		s-3.935,3.394-5.774,5.232s-3.583,3.765-5.232,5.774c-1.65,2.01-3.197,4.097-4.641,6.259c-1.445,2.162-2.78,4.39-4.006,6.684
		c-1.225,2.294-2.336,4.642-3.331,7.044c-0.996,2.402-1.87,4.848-2.625,7.337c-0.755,2.488-1.385,5.008-1.893,7.559
		c-0.508,2.55-0.888,5.119-1.143,7.706c-0.255,2.589-0.383,5.184-0.383,7.783c0.001,2.602,0.128,5.194,0.383,7.784
		c0.255,2.588,0.636,5.157,1.144,7.708c0.507,2.551,1.138,5.07,1.893,7.559c0.754,2.49,1.63,4.936,2.625,7.34
		c0.995,2.402,2.105,4.752,3.332,7.045c1.226,2.295,2.561,4.521,4.006,6.684c1.445,2.162,2.992,4.248,4.642,6.26
		c1.65,2.01,3.394,3.936,5.233,5.773c1.839,1.838,3.763,3.582,5.773,5.232c2.01,1.65,4.096,3.197,6.258,4.643
		c2.163,1.445,4.39,2.779,6.684,4.006c2.294,1.225,4.642,2.336,7.044,3.332s4.848,1.869,7.336,2.623
		c2.489,0.756,5.008,1.387,7.559,1.895c2.55,0.506,5.12,0.889,7.708,1.145c2.588,0.254,5.182,0.381,7.782,0.381
		c2.603,0,5.195-0.127,7.784-0.383c2.587-0.254,5.157-0.637,7.707-1.143c2.552-0.51,5.071-1.139,7.56-1.895
		c2.488-0.754,4.934-1.629,7.336-2.625c2.402-0.994,4.75-2.105,7.045-3.332c2.293-1.227,4.521-2.561,6.683-4.006
		c2.162-1.445,4.248-2.992,6.259-4.643c2.011-1.648,3.935-3.393,5.774-5.232c1.839-1.838,3.583-3.764,5.232-5.773
		c1.65-2.01,3.197-4.096,4.642-6.26c1.445-2.16,2.781-4.389,4.007-6.684c1.226-2.291,2.336-4.641,3.332-7.045
		c0.994-2.402,1.869-4.85,2.624-7.338s1.386-5.008,1.894-7.559c0.507-2.551,0.888-5.12,1.143-7.708
		c0.256-2.59,0.383-5.182,0.383-7.784c0-2.6-0.128-5.195-0.383-7.783s-0.636-5.156-1.143-7.708c-0.509-2.55-1.14-5.069-1.895-7.559
		c-0.754-2.488-1.63-4.934-2.625-7.337c-0.995-2.401-2.106-4.75-3.332-7.044c-1.226-2.293-2.561-4.521-4.006-6.684
		s-2.992-4.248-4.643-6.259c-1.649-2.01-3.394-3.935-5.232-5.773c-1.84-1.838-3.763-3.583-5.773-5.233
		c-2.01-1.649-4.096-3.197-6.259-4.641c-2.162-1.445-4.39-2.78-6.684-4.007c-2.293-1.225-4.642-2.336-7.043-3.332
		c-2.403-0.995-4.849-1.87-7.338-2.625c-2.488-0.755-5.008-1.387-7.558-1.894c-2.55-0.507-5.12-0.888-7.708-1.143
		c-2.588-0.256-5.183-0.383-7.783-0.383"/>
	<g clip-path="url(#SVGID_2_)">
		<text transform="matrix(1 0 0 1 106.3716 123.0303)" fill="#535353" font-family="'Helvetica'" font-size="11.434">pL0R</text>
	</g>
	<path clip-path="url(#SVGID_2_)" fill="#CD9325" d="M69.333,64.839c-5.238,4.811-9.7,10.257-13.387,16.339l-5.16-3.129l-5.161-3.13
		c4.281-7.06,9.462-13.383,15.542-18.97l4.083,4.444L69.333,64.839z"/>
	<path clip-path="url(#SVGID_2_)" fill="none" stroke="#000000" stroke-width="0.6352" d="M69.333,64.839
		c-5.238,4.811-9.7,10.257-13.387,16.339l-5.16-3.129l-5.161-3.13c4.281-7.06,9.462-13.383,15.542-18.97l4.083,4.444L69.333,64.839z
		"/>
	<g clip-path="url(#SVGID_2_)">
		<text transform="matrix(0.6166 -0.7873 0.7873 0.6166 57.1143 73.6719)" font-family="'Helvetica'" font-size="6.3522">U</text>
	</g>
	<g clip-path="url(#SVGID_2_)">
		<text transform="matrix(0.6556 -0.7551 0.7551 0.6556 59.8823 70.1533)" font-family="'Helvetica'" font-size="6.3522">1</text>
	</g>
	<g clip-path="url(#SVGID_2_)">
		<text transform="matrix(0.8418 -0.5398 0.5398 0.8418 77.8643 54.269)" font-family="'Helvetica'" font-size="6.3523">‌</text>
	</g>
	
		<line clip-path="url(#SVGID_2_)" fill="none" stroke="#000000" stroke-width="0.6352" x1="96.568" y1="44.305" x2="91.835" y2="32.515"/>
	<line clip-path="url(#SVGID_2_)" x1="98.934" y1="50.199" x2="91.835" y2="32.515"/>
	<path clip-path="url(#SVGID_2_)" fill="#535353" d="M92.014,33.812l-0.236-0.589l0.589-0.237l0.237,0.59 M92.487,34.991
		l-0.236-0.589l0.589-0.236l0.236,0.589 M92.96,36.17l-0.237-0.59l0.589-0.236l0.237,0.59 M93.434,37.349l-0.237-0.589l0.589-0.236
		l0.236,0.589 M93.907,38.528l-0.236-0.59l0.589-0.236l0.236,0.589 M94.38,39.707l-0.237-0.589l0.59-0.236l0.236,0.589
		 M94.854,40.886l-0.237-0.59l0.589-0.236l0.237,0.589 M95.326,42.064l-0.236-0.588l0.589-0.237l0.237,0.59 M95.8,43.244
		l-0.236-0.589l0.589-0.237l0.236,0.589 M96.273,44.423l-0.236-0.59l0.59-0.236l0.236,0.59 M96.747,45.603l-0.237-0.589l0.589-0.237
		l0.238,0.589 M97.219,46.781l-0.236-0.59l0.589-0.236l0.237,0.589 M97.692,47.961l-0.236-0.59l0.59-0.237l0.236,0.59 M98.166,49.14
		l-0.236-0.59l0.589-0.237l0.236,0.591 M98.64,50.318l-0.237-0.59l0.59-0.237l0.236,0.59"/>
	<g clip-path="url(#SVGID_2_)">
		
			<text transform="matrix(0.8698 -0.4933 0.4933 0.8698 92.478 61.8711)" fill="#535353" font-family="'Helvetica'" font-size="6.3523">J</text>
	</g>
	<g clip-path="url(#SVGID_2_)">
		
			<text transform="matrix(0.8942 -0.4477 0.4477 0.8942 95.2622 60.2852)" fill="#535353" font-family="'Helvetica'" font-size="6.3522">2</text>
	</g>
	<g clip-path="url(#SVGID_2_)">
		
			<text transform="matrix(0.9168 -0.3993 0.3993 0.9168 98.3872 58.7192)" fill="#535353" font-family="'Helvetica'" font-size="6.3522">3</text>
	</g>
	<g clip-path="url(#SVGID_2_)">
		
			<text transform="matrix(0.9365 -0.3507 0.3507 0.9365 101.5371 57.3447)" fill="#535353" font-family="'Helvetica'" font-size="6.3523">1</text>
	</g>
	<g clip-path="url(#SVGID_2_)">
		
			<text transform="matrix(0.9539 -0.3003 0.3003 0.9539 104.8057 56.1201)" fill="#535353" font-family="'Helvetica'" font-size="6.3522">0</text>
	</g>
	<g clip-path="url(#SVGID_2_)">
		
			<text transform="matrix(0.9688 -0.248 0.248 0.9688 108.1963 55.0508)" fill="#535353" font-family="'Helvetica'" font-size="6.3522">1</text>
	</g>
	<path clip-path="url(#SVGID_2_)" fill="none" stroke="#000000" stroke-width="0.6352" d="M91.835,32.515
		c1.343-0.539,2.698-1.046,4.064-1.521"/>
	<path clip-path="url(#SVGID_2_)" fill="none" stroke="#000000" stroke-width="0.6352" d="M97.09,33.943
		c-0.049,0.017-0.098,0.034-0.146,0.051l-1.043-3l-1.042-3c0.052-0.019,0.104-0.037,0.156-0.055l6.409,1.328L97.09,33.943z"/>
	<path clip-path="url(#SVGID_2_)" fill="#4BAFA5" d="M129.135,45.638c-8.434-1.031-16.8-0.64-25.101,1.176l-1.289-5.896
		l-1.289-5.896c9.638-2.106,19.352-2.562,29.145-1.365l6.236,7.153L129.135,45.638z"/>
	<path clip-path="url(#SVGID_2_)" fill="none" stroke="#000000" stroke-width="0.6352" d="M129.135,45.638
		c-8.434-1.032-16.8-0.64-25.102,1.174l-1.289-5.896l-1.288-5.895c9.638-2.106,19.352-2.562,29.145-1.364l6.236,7.153
		L129.135,45.638z"/>
	<line clip-path="url(#SVGID_2_)" x1="119.727" y1="20.311" x2="119.767" y2="33.015"/>
	<path clip-path="url(#SVGID_2_)" fill="#535353" d="M120.08,31.744l0.002,0.635l-0.635,0.002l-0.002-0.635 M120.077,30.473
		l0.002,0.635l-0.636,0.002l-0.001-0.635 M120.072,29.203l0.002,0.636l-0.635,0.001l-0.003-0.635 M120.068,27.933l0.002,0.635
		l-0.635,0.001l-0.002-0.635 M120.064,26.662l0.002,0.635l-0.635,0.002l-0.001-0.635 M120.061,25.392l0.001,0.635l-0.635,0.001
		l-0.001-0.635 M120.056,24.121l0.003,0.635l-0.636,0.002l-0.002-0.636 M120.053,22.851l0.002,0.635l-0.635,0.002l-0.001-0.635
		 M120.048,21.58l0.002,0.635l-0.635,0.001l-0.001-0.635 M120.044,20.31l0.002,0.636l-0.636,0.001l-0.001-0.635"/>
	<g clip-path="url(#SVGID_2_)">
		<text transform="matrix(1 0 0 1 113.9443 15.6201)" font-family="'Helvetica'" font-size="6.3522">lacZ</text>
	</g>
	
		<line clip-path="url(#SVGID_2_)" fill="none" stroke="#000000" stroke-width="0.6352" x1="142.552" y1="43.895" x2="146.155" y2="31.712"/>
	<path clip-path="url(#SVGID_2_)" fill="none" stroke="#000000" stroke-width="0.6352" d="M141.121,30.377
		c3.382,0.795,6.711,1.779,9.983,2.952"/>
	<g clip-path="url(#SVGID_2_)">
		
			<text transform="matrix(0.977 0.2133 -0.2133 0.977 138.6938 24.6353)" fill="#535353" font-family="'Helvetica'" font-size="6.3522">B</text>
	</g>
	<g clip-path="url(#SVGID_2_)">
		
			<text transform="matrix(0.9677 0.2523 -0.2523 0.9677 142.8452 25.5488)" fill="#535353" font-family="'Helvetica'" font-size="6.3522">0</text>
	</g>
	<g clip-path="url(#SVGID_2_)">
		
			<text transform="matrix(0.958 0.2869 -0.2869 0.958 146.2261 26.4297)" fill="#535353" font-family="'Helvetica'" font-size="6.3522">0</text>
	</g>
	<g clip-path="url(#SVGID_2_)">
		
			<text transform="matrix(0.947 0.3212 -0.3212 0.947 149.5806 27.4326)" fill="#535353" font-family="'Helvetica'" font-size="6.3523">1</text>
	</g>
	<g clip-path="url(#SVGID_2_)">
		
			<text transform="matrix(0.9346 0.3556 -0.3556 0.9346 152.9448 28.5752)" fill="#535353" font-family="'Helvetica'" font-size="6.3522">5</text>
	</g>
	<path clip-path="url(#SVGID_2_)" fill="#896781" d="M185.324,83.21c-3.494-6.194-7.783-11.778-12.866-16.751l4.219-4.314
		l4.22-4.313c5.902,5.773,10.883,12.257,14.939,19.448l-5.256,2.965L185.324,83.21z"/>
	<path clip-path="url(#SVGID_2_)" fill="none" stroke="#000000" stroke-width="0.6352" d="M185.324,83.21
		c-3.494-6.194-7.783-11.778-12.866-16.751l4.219-4.314l4.22-4.313c5.902,5.773,10.883,12.257,14.939,19.448l-5.256,2.965
		L185.324,83.21z"/>
	<g clip-path="url(#SVGID_2_)">
		<text transform="matrix(0.6302 0.7764 -0.7764 0.6302 179.2588 69.0195)" font-family="'Helvetica'" font-size="6.3523">U</text>
	</g>
	<g clip-path="url(#SVGID_2_)">
		<text transform="matrix(0.5863 0.8101 -0.8101 0.5863 182.0933 72.5176)" font-family="'Helvetica'" font-size="6.3522">X</text>
	</g>
	<path clip-path="url(#SVGID_2_)" fill="#515151" d="M107.153,193.885c6.001,1.047,12.04,1.357,18.116,0.934l7.441,5.221l-6.6,6.818
		c-7.055,0.494-14.065,0.133-21.033-1.084l1.038-5.943L107.153,193.885z"/>
	<path clip-path="url(#SVGID_2_)" fill="none" stroke="#000000" stroke-width="0.6352" d="M107.153,193.885
		c6.001,1.047,12.04,1.357,18.116,0.934l7.441,5.221l-6.6,6.82c-7.055,0.492-14.065,0.131-21.033-1.086l1.038-5.943L107.153,193.885
		z"/>
	<line clip-path="url(#SVGID_2_)" x1="115.777" y1="219.684" x2="119.357" y2="207.068"/>
	<path clip-path="url(#SVGID_2_)" fill="#535353" d="M118.939,207.375l0.112-0.395l0.611,0.174l-0.112,0.395 M118.593,208.598
		l0.173-0.613l0.612,0.174l-0.174,0.613 M118.246,209.818l0.172-0.611l0.612,0.174l-0.173,0.611 M117.899,211.041l0.173-0.611
		l0.611,0.174l-0.174,0.611 M117.552,212.264l0.174-0.611l0.61,0.174l-0.173,0.611 M117.205,213.486l0.173-0.611l0.612,0.174
		l-0.174,0.611 M116.858,214.709l0.174-0.611l0.611,0.172l-0.173,0.613 M116.512,215.932l0.172-0.613l0.612,0.174l-0.173,0.611
		 M116.165,217.152l0.173-0.611l0.611,0.174l-0.173,0.611 M115.818,218.375l0.173-0.611l0.611,0.174l-0.173,0.609 M115.471,219.596
		l0.174-0.609l0.611,0.174l-0.174,0.609"/>
	<g clip-path="url(#SVGID_2_)">
		<text transform="matrix(1 0 0 1 105.9717 227.6865)" font-family="'Helvetica'" font-size="6.3522">SpecR</text>
	</g>
	<path clip-path="url(#SVGID_2_)" fill="#657DA7" d="M69.427,61.546c-0.057,0.039-0.113,0.078-0.168,0.118l-2.411-3.471l-2.412-3.47
		c0.06-0.042,0.122-0.085,0.182-0.126l11.234-2.359L69.427,61.546z"/>
	<path clip-path="url(#SVGID_2_)" fill="none" stroke="#000000" stroke-width="0.8453" d="M69.427,61.546
		c-0.057,0.039-0.113,0.078-0.168,0.118l-2.411-3.471l-2.412-3.47c0.06-0.042,0.122-0.085,0.182-0.126l11.234-2.359L69.427,61.546z"
		/>
	<path clip-path="url(#SVGID_2_)" fill="#657DA7" d="M172.215,62.816c0.057,0.039,0.113,0.078,0.169,0.118l2.411-3.471l2.411-3.47
		c-0.061-0.042-0.122-0.085-0.182-0.126l-11.235-2.359L172.215,62.816z"/>
	<path clip-path="url(#SVGID_2_)" fill="none" stroke="#000000" stroke-width="0.8453" d="M172.215,62.816
		c0.057,0.039,0.113,0.078,0.169,0.118l2.411-3.471l2.411-3.47c-0.061-0.042-0.122-0.085-0.182-0.126l-11.235-2.359L172.215,62.816z
		"/>
	<path clip-path="url(#SVGID_2_)" fill="#C37E60" d="M157.51,42.9c-0.056-0.039-0.112-0.078-0.168-0.119l-2.412,3.471l-2.411,3.47
		c0.062,0.042,0.123,0.084,0.183,0.126l11.234,2.358L157.51,42.9z"/>
	<path clip-path="url(#SVGID_2_)" fill="none" stroke="#000000" stroke-width="0.8453" d="M157.51,42.9
		c-0.056-0.039-0.112-0.078-0.168-0.119l-2.411,3.471l-2.412,3.47c0.062,0.042,0.123,0.084,0.183,0.126l11.234,2.358L157.51,42.9z"
		/>
	<path clip-path="url(#SVGID_2_)" fill="#C37E60" d="M83.425,42.335c0.056-0.039,0.113-0.078,0.169-0.119l2.411,3.471l2.412,3.47
		c-0.062,0.043-0.123,0.085-0.182,0.126L77,51.643L83.425,42.335z"/>
	<path clip-path="url(#SVGID_2_)" fill="none" stroke="#000000" stroke-width="0.8453" d="M83.425,42.335
		c0.056-0.039,0.113-0.078,0.169-0.119l2.411,3.471l2.412,3.47c-0.062,0.043-0.123,0.085-0.182,0.126L77,51.643L83.425,42.335z"/>
	<g clip-path="url(#SVGID_2_)">
		
			<text transform="matrix(0.9163 0.4004 -0.4004 0.9163 155.1001 38.2354)" fill="#535353" font-family="'Helvetica'" font-size="6.3522">SapI</text>
	</g>
	<g clip-path="url(#SVGID_2_)">
		
			<text transform="matrix(0.9037 -0.4282 0.4282 0.9037 74.1616 42.5732)" fill="#535353" font-family="'Helvetica'" font-size="6.3523">SapI</text>
	</g>
	<g clip-path="url(#SVGID_2_)">
		
			<text transform="matrix(0.87 0.4931 -0.4931 0.87 171.5059 46.4443)" fill="#535353" font-family="'Helvetica'" font-size="6.3522">BsaI</text>
	</g>
	<g clip-path="url(#SVGID_2_)">
		
			<text transform="matrix(0.7915 -0.6112 0.6112 0.7915 60.1182 52.5215)" fill="#535353" font-family="'Helvetica'" font-size="6.3522">BsaI</text>
	</g>
	<g clip-path="url(#SVGID_2_)">
		<text transform="matrix(1 0 0 1 106.1509 133.541)" font-family="'Helvetica'" font-size="7.6227">3137 bp</text>
	</g>
</g>
</svg>
