<?xml version="1.0" encoding="utf-8"?>
<!-- Generator: Adobe Illustrator 16.0.4, SVG Export Plug-In . SVG Version: 6.00 Build 0)  -->
<!DOCTYPE svg PUBLIC "-//W3C//DTD SVG 1.1//EN" "http://www.w3.org/Graphics/SVG/1.1/DTD/svg11.dtd">
<svg version="1.1" id="Layer_1" xmlns="http://www.w3.org/2000/svg" xmlns:xlink="http://www.w3.org/1999/xlink" x="0px" y="0px"
	 width="373px" height="225px" viewBox="0 0 373 225" enable-background="new 0 0 373 225" xml:space="preserve">
<line fill="none" stroke="#000000" stroke-width="1.315" stroke-linejoin="round" stroke-miterlimit="10" x1="346.229" y1="27.144" x2="346.229" y2="102.119"/>
<line fill="none" stroke="#000000" stroke-width="1.315" stroke-linejoin="round" stroke-miterlimit="10" x1="32.525" y1="26.924" x2="32.525" y2="101.898"/>
<path fill="none" stroke="#939393" stroke-width="0.658" stroke-linejoin="round" stroke-miterlimit="10" stroke-dasharray="0.6577,0.6577" d="
	M209.898,58.526v34.609 M180.584,58.526v34.609 M240.449,58.526v34.609 M92.154,58.526v34.609 M150.804,58.526v36.399
	 M62.625,58.526v44.03 M269.385,59.403v34.609"/>
<rect x="243.23" y="62.687" fill="none" stroke="#202E58" stroke-width="0.658" stroke-miterlimit="10" width="23.097" height="8.39"/>
<line fill="none" stroke="#000000" stroke-width="1.315" stroke-linejoin="round" stroke-miterlimit="10" x1="299.309" y1="26.721" x2="299.309" y2="91.089"/>
<rect x="125.025" y="12.246" fill="#CAD7E5" width="26.303" height="11.877"/>
<line fill="none" stroke="#000000" stroke-width="1.315" stroke-linejoin="round" stroke-miterlimit="10" x1="121.678" y1="26.71" x2="121.678" y2="89.097"/>
<rect x="35.626" y="89.336" fill="#F1F916" width="307.411" height="13.076"/>
<text transform="matrix(1 0 0 1 44.8159 98.5054)" fill="#4D5B15" font-family="'Arial-BoldMT'" font-size="6.5767">A1</text>
<text transform="matrix(1 0 0 1 53.2227 98.5054)" fill="#4D5B15" font-family="'Arial-BoldMT'" font-size="6.5767" letter-spacing="18"> </text>
<text transform="matrix(1 0 0 1 74.0957 98.5054)" fill="#4D5B15" font-family="'Arial-BoldMT'" font-size="6.5767">A2</text>
<text transform="matrix(1 0 0 1 82.5039 98.5054)" fill="#4D5B15" font-family="'Arial-BoldMT'" font-size="6.5767" letter-spacing="18"> </text>
<text transform="matrix(1 0 0 1 103.377 98.5054)" fill="#4D5B15" font-family="'Arial-BoldMT'" font-size="6.5767">A3 </text>
<text transform="matrix(1 0 0 1 132.6729 98.5054)" fill="#202E58" font-family="'Arial-BoldMT'" font-size="6.5767">B1</text>
<text transform="matrix(1 0 0 1 141.0801 98.5054)" fill="#202E58" font-family="'Arial-BoldMT'" font-size="6.5767" letter-spacing="18"> </text>
<text transform="matrix(1 0 0 1 161.96 98.5054)" fill="#202E58" font-family="'Arial-BoldMT'" font-size="6.5767">B2</text>
<text transform="matrix(1 0 0 1 170.3667 98.5054)" fill="#202E58" font-family="'Arial-BoldMT'" font-size="6.5767" letter-spacing="18"> </text>
<text transform="matrix(1 0 0 1 191.2471 98.5054)" fill="#202E58" font-family="'Arial-BoldMT'" font-size="6.5767">B3</text>
<text transform="matrix(1 0 0 1 199.6543 98.5054)" fill="#202E58" font-family="'Arial-BoldMT'" font-size="6.5767" letter-spacing="18"> </text>
<text transform="matrix(1 0 0 1 220.5332 98.5054)" fill="#202E58" font-family="'Arial-BoldMT'" font-size="6.5767">B4</text>
<text transform="matrix(1 0 0 1 228.9414 98.5054)" fill="#202E58" font-family="'Arial-BoldMT'" font-size="6.5767" letter-spacing="18"> </text>
<text transform="matrix(1 0 0 1 249.8203 98.5054)" fill="#202E58" font-family="'Arial-BoldMT'" font-size="6.5767">B5</text>
<text transform="matrix(1 0 0 1 258.2285 98.5054)" fill="#202E58" font-family="'Arial-BoldMT'" font-size="6.5767" letter-spacing="18"> </text>
<text transform="matrix(1 0 0 1 279.1094 98.5054)" fill="#202E58" font-family="'Arial-BoldMT'" font-size="6.5767">B6 </text>
<text transform="matrix(1 0 0 1 317.5947 97.8481)" fill="#4B2616" font-family="'Arial-BoldMT'" font-size="6.5767">C1 </text>
<rect x="36.01" y="28.71" fill="#4D5B15" width="82.849" height="11.878"/>
<text transform="matrix(1 0 0 1 67.3364 33.6343)" fill="#FFFFFF" font-family="'ArialMT'" font-size="5.2614">5&apos; Non</text>
<text transform="matrix(1 0 0 1 61.1143 39.9478)" fill="#FFFFFF" font-family="'ArialMT'" font-size="5.2614">transcribed </text>
<rect x="124.791" y="28.711" fill="#202E58" width="171.845" height="11.877"/>
<text transform="matrix(1 0 0 1 182.4463 37.2515)" fill="#FFFFFF" font-family="'ArialMT'" font-size="5.2614">Transcribed region </text>
<rect x="302.131" y="28.71" fill="#4B2616" width="41.062" height="11.878"/>
<text transform="matrix(1 0 0 1 315.9268 33.3511)" fill="#FFFFFF" font-family="'ArialMT'" font-size="5.2614">3&apos; Non</text>
<text transform="matrix(1 0 0 1 309.7051 39.6646)" fill="#FFFFFF" font-family="'ArialMT'" font-size="5.2614">transcribed </text>
<rect x="36.01" y="75.959" fill="#A8798C" width="141.868" height="8.39"/>
<rect x="36.01" y="75.959" fill="none" stroke="#000000" stroke-width="0.658" stroke-miterlimit="10" width="141.868" height="8.39"/>
<text transform="matrix(1 0 0 1 90.9619 82.7866)" font-family="'Arial-BoldMT'" font-size="6.5767">PROM + 5UTR </text>
<rect x="183.879" y="75.905" fill="#A8798C" width="82.944" height="8.389"/>
<rect x="183.879" y="75.905" fill="none" stroke="#000000" stroke-width="0.658" stroke-miterlimit="10" width="82.944" height="8.39"/>
<text transform="matrix(1 0 0 1 216.0342 82.7866)" font-family="'Arial-BoldMT'" font-size="6.5767">CDS </text>
<rect x="272.753" y="75.905" fill="#A8798C" width="70.341" height="8.389"/>
<rect x="272.753" y="75.905" fill="none" stroke="#000000" stroke-width="0.658" stroke-miterlimit="10" width="70.341" height="8.39"/>
<text transform="matrix(1 0 0 1 288.2695 82.6763)" font-family="'Arial-BoldMT'" font-size="6.5767">3UTR + TERM </text>
<rect x="21.822" y="45.118" fill="#FFFFFF" width="330.764" height="13.373"/>
<text transform="matrix(1 0 0 1 21.9541 55.9946)" font-family="'HelveticaNeue-Bold'" font-size="6.5767">GGAG</text>
<rect x="53.007" y="46.764" fill="#FFFFFF" width="26.536" height="12.568"/>
<text transform="matrix(1 0 0 1 52.1489 55.9946)" font-family="'HelveticaNeue-Bold'" font-size="6.5767">TGAC</text>
<rect x="79.543" y="46.764" fill="#FFFFFF" width="26.536" height="12.568"/>
<text transform="matrix(1 0 0 1 81.6733 55.9946)" font-family="'HelveticaNeue-Bold'" font-size="6.5767">TCC</text>
<text transform="matrix(1 0 0 1 95.4385 55.9946)" font-family="'HelveticaNeue-Bold'" font-size="6.5767" letter-spacing="10">C</text>
<text transform="matrix(1 0 0 1 111.9331 55.9946)" font-family="'HelveticaNeue-Bold'" font-size="6.5767">TACT</text>
<text transform="matrix(1 0 0 1 194.3984 53.5278)" font-family="'HelveticaNeue-Bold'" font-size="5.2614">AGCC</text>
<rect x="218.822" y="46.763" fill="none" stroke="#FFFFFF" stroke-width="0.658" stroke-linejoin="round" stroke-miterlimit="10" width="34.828" height="10.776"/>
<text transform="matrix(1 0 0 1 178.3633 49.731)" font-family="'HelveticaNeue-Italic'" font-size="5.2614">Met</text>
<text transform="matrix(1 0 0 1 201.0361 49.1558)" font-family="'HelveticaNeue-Italic'" font-size="4.6037">Ala</text>
<text transform="matrix(1 0 0 1 237.8359 49.731)" font-family="'HelveticaNeue-Italic'" font-size="5.2614">Ser</text>
<text transform="matrix(1 0 0 1 253.3926 49.9116)" font-family="'HelveticaNeue-Italic'" font-size="5.2614">Stop</text>
<rect x="150.907" y="12.345" fill="#6185B8" width="119.174" height="11.877"/>
<text transform="matrix(1 0 0 1 186.3921 19.686)" fill="#FFFFFF" font-family="'ArialMT'" font-size="5.2614">Coding sequence </text>
<rect x="269.564" y="12.345" fill="#0A1435" width="26.645" height="11.877"/>
<text transform="matrix(1 0 0 1 276.6504 19.9409)" fill="#CAD7E5" font-family="'ArialMT'" font-size="5.2614">3&apos;UTR </text>
<path d="M115.409,28.694V7.27c0-0.194,0.17-0.352,0.38-0.352h21.585V5.061l6.387,3.441l-6.387,3.442v-1.858h-18.54v18.608H115.409"
	/>
<text transform="matrix(1 0 0 1 137.2007 55.9946)" font-family="'HelveticaNeue-Bold'" font-size="6.5767">CCAT(g)</text>
<text transform="matrix(1 0 0 1 151.3506 49.731)" font-family="'HelveticaNeue-Italic'" font-size="5.2614">Met</text>
<rect x="36.01" y="62.907" fill="none" stroke="#4D5B15" stroke-width="0.658" stroke-miterlimit="10" width="23.096" height="8.389"/>
<text transform="matrix(1 0 0 1 40.209 69.4028)" fill="#4D5B15" font-family="'Arial-BoldMT'" font-size="6.5767">DIST </text>
<rect x="65.694" y="62.907" fill="none" stroke="#4D5B15" stroke-width="0.658" stroke-miterlimit="10" width="23.096" height="8.389"/>
<text transform="matrix(1 0 0 1 67.9883 69.8413)" fill="#4D5B15" font-family="'Arial-BoldMT'" font-size="6.5767">PROX </text>
<rect x="95.377" y="62.907" fill="none" stroke="#4D5B15" stroke-width="0.658" stroke-miterlimit="10" width="23.096" height="8.389"/>
<text transform="matrix(1 0 0 1 97.6704 69.8413)" fill="#4D5B15" font-family="'Arial-BoldMT'" font-size="6.5767">CORE</text>
<rect x="154.355" y="62.907" fill="none" stroke="#202E58" stroke-width="0.658" stroke-miterlimit="10" width="23.096" height="8.389"/>
<text transform="matrix(1 0 0 1 157.0703 69.8413)" fill="#202E58" font-family="'Arial-BoldMT'" font-size="6.5767">NTAG</text>
<rect x="184.064" y="62.907" fill="none" stroke="#202E58" stroke-width="0.658" stroke-miterlimit="10" width="23.096" height="8.389"/>
<text transform="matrix(1 0 0 1 186.9653 69.8413)" fill="#202E58" font-family="'Arial-BoldMT'" font-size="6.5767">CDS1</text>
<text transform="matrix(1 0 0 1 204.5078 69.8413)" fill="#202E58" font-family="'Arial-BoldMT'" font-size="6.5767" letter-spacing="39"> </text>
<text transform="matrix(1 0 0 1 245.6328 69.8413)" fill="#202E58" font-family="'Arial-BoldMT'" font-size="6.5767">CTAG </text>
<rect x="213.639" y="62.686" fill="none" stroke="#202E58" stroke-width="0.658" stroke-miterlimit="10" width="23.094" height="8.389"/>
<text transform="matrix(1 0 0 1 216.8301 69.8413)" fill="#202E58" font-family="'Arial-BoldMT'" font-size="6.5767">CDS2</text>
<rect x="273.082" y="62.687" fill="none" stroke="#202E58" stroke-width="0.658" stroke-miterlimit="10" width="23.096" height="8.39"/>
<text transform="matrix(1 0 0 1 275.9736 69.8413)" fill="#202E58" font-family="'Arial-BoldMT'" font-size="6.5767">3UTR </text>
<rect x="302.766" y="62.686" fill="none" stroke="#4B2616" stroke-width="0.658" stroke-miterlimit="10" width="40.252" height="8.389"/>
<text transform="matrix(1 0 0 1 313.4023 69.8413)" fill="#4B2616" font-family="'Arial-BoldMT'" font-size="6.5767">TERM </text>
<rect x="124.629" y="62.907" fill="none" stroke="#202E58" stroke-width="0.658" stroke-miterlimit="10" width="23.376" height="8.389"/>
<text transform="matrix(1 0 0 1 127.9355 69.8413)" fill="#202E58" font-family="'Arial-BoldMT'" font-size="6.5767">5UTR </text>
<text transform="matrix(1 0 0 1 131.0596 19.5894)" fill="#0A1435" font-family="'ArialMT'" font-size="5.2614">5&apos;UTR </text>
<text transform="matrix(1 0 0 1 171.2534 55.9946)" font-family="'HelveticaNeue-Bold'" font-size="6.5767">AATG</text>
<text transform="matrix(1 0 0 1 115.1719 6.0991)" font-family="'HelveticaNeue-Bold'" font-size="6.5767">TSS</text>
<text transform="matrix(1 0 0 1 305.0186 21.9741)" font-family="'HelveticaNeue-Bold'" font-size="6.5767">PAS</text>
<polyline points="318.068,29.109 318.131,28.999 314.652,22.975 307.697,22.975 304.218,28.999 304.282,29.109 318.068,29.109 "/>
<text transform="matrix(1 0 0 1 212.0664 56.1938)" font-family="'HelveticaNeue-Bold'" font-size="5.2614">AGGTT</text>
<text transform="matrix(1 0 0 1 215.3711 51.1558)" font-family="'HelveticaNeue-Italic'" font-size="4.6037">Gly</text>
<line fill="none" stroke="#000000" stroke-width="0.5" stroke-miterlimit="10" x1="208.001" y1="56.321" x2="216.335" y2="46.321"/>
<text transform="matrix(1 0 0 1 21.9463 149.0391)" font-family="'HelveticaNeue-Medium'" font-size="6">GGAG</text>
<text transform="matrix(1 0 0 1 261.7803 149.0391)" font-family="'HelveticaNeue-Medium'" font-size="6">GCT</text>
<text transform="matrix(1 0 0 1 274.2246 149.0391)" font-family="'HelveticaNeue-Medium'" font-size="6" letter-spacing="7">T</text>
<text transform="matrix(1 0 0 1 286.4043 149.0391)" font-family="'HelveticaNeue-Medium'" font-size="6">          </text>
<text transform="matrix(1 0 0 1 303.084 149.0391)" font-family="'HelveticaNeue-Medium'" font-size="6" letter-spacing="24"> </text>
<text transform="matrix(1 0 0 1 329.0996 149.0391)" font-family="'HelveticaNeue-Medium'" font-size="6">CGCT</text>
<text transform="matrix(1 0 0 1 171.2456 149.0391)" font-family="'HelveticaNeue-Medium'" font-size="6">AATG</text>
<text transform="matrix(1 0 0 1 212.0586 149.0391)" font-family="'HelveticaNeue-Medium'" font-size="6">AGGT</text>
<path fill="none" stroke="#E71900" stroke-width="0.8" stroke-miterlimit="10" d="M44.5,57.36c0,0.353-0.448,0.64-1,0.64H20
	c-0.552,0-1-0.287-1-0.64v-6.721c0-0.353,0.448-0.64,1-0.64h23.5c0.552,0,1,0.287,1,0.64V57.36z"/>
<path fill="none" stroke="#E71900" stroke-width="0.8383" stroke-miterlimit="10" d="M193.493,57.293
	c0,0.354-0.491,0.641-1.099,0.641h-25.804c-0.606,0-1.098-0.287-1.098-0.641v-6.721c0-0.353,0.492-0.639,1.098-0.639h25.804
	c0.606,0,1.099,0.286,1.099,0.639V57.293z"/>
<text transform="matrix(1 0 0 1 230.2891 55.9946)" font-family="'HelveticaNeue-Bold'" font-size="6.5767">TTC</text>
<text transform="matrix(1 0 0 1 243.1992 55.9946)" font-family="'HelveticaNeue-Bold'" font-size="6.5767" letter-spacing="6">G</text>
<text transform="matrix(1 0 0 1 255.334 55.9946)" font-family="'HelveticaNeue-Bold'" font-size="6.5767">(*)GCT</text>
<text transform="matrix(1 0 0 1 275.7861 55.9946)" font-family="'HelveticaNeue-Bold'" font-size="6.5767" letter-spacing="8">T</text>
<text transform="matrix(1 0 0 1 289.2549 55.9946)" font-family="'HelveticaNeue-Bold'" font-size="6.5767">GGT</text>
<text transform="matrix(1 0 0 1 303.2559 55.9946)" font-family="'HelveticaNeue-Bold'" font-size="6.5767" letter-spacing="27">A</text>
<text transform="matrix(1 0 0 1 335.8965 55.9946)" font-family="'HelveticaNeue-Bold'" font-size="6.5767">CGCT</text>
<path fill="none" stroke="#E71900" stroke-width="0.6435" stroke-miterlimit="10" d="M227.518,58.298
	c0,0.354-0.289,0.641-0.646,0.641h-15.206c-0.356,0-0.646-0.287-0.646-0.641v-6.721c0-0.353,0.289-0.639,0.646-0.639h15.206
	c0.357,0,0.646,0.286,0.646,0.639V58.298z"/>
<path fill="none" stroke="#E71900" stroke-width="0.8383" stroke-miterlimit="10" d="M282,57.359c0,0.354-0.492,0.641-1.098,0.641
	h-25.805c-0.605,0-1.099-0.287-1.099-0.641v-6.721c0-0.353,0.492-0.639,1.099-0.639h25.805c0.604,0,1.098,0.286,1.098,0.639V57.359z
	"/>
<path fill="none" stroke="#E71900" stroke-width="0.8383" stroke-miterlimit="10" d="M360,56.859c0,0.354-0.492,0.641-1.098,0.641
	h-25.805c-0.605,0-1.099-0.287-1.099-0.641v-6.721c0-0.353,0.492-0.639,1.099-0.639h25.805c0.604,0,1.098,0.286,1.098,0.639V56.859z
	"/>
<g>
	<path d="M203.177,124.432l-5.575,6.299l-5.435-6.312c-0.424-0.491-1.163-0.548-1.651-0.123c-0.49,0.419-0.545,1.156-0.123,1.649
		l6.311,7.332c0.219,0.254,0.54,0.402,0.875,0.402c0.343,0.002,0.662-0.139,0.884-0.392l6.47-7.308
		c0.426-0.484,0.381-1.223-0.103-1.654C204.346,123.9,203.607,123.941,203.177,124.432"/>
	<path d="M198.762,132.561l0.026-21.563c0.003-0.645-0.521-1.169-1.168-1.169c-0.644-0.002-1.167,0.521-1.172,1.167l-0.029,21.563
		c0,0.645,0.522,1.172,1.167,1.176C198.232,133.732,198.759,133.209,198.762,132.561"/>
</g>
<text transform="matrix(1 0 0 1 28.167 139.3262)" fill="#E71300" font-family="'Courier'" font-size="8">A</text>
<text transform="matrix(1 0 0 1 177.1685 139.3262)" fill="#E71300" font-family="'Courier'" font-size="8">C</text>
<text transform="matrix(1 0 0 1 217.5 139.3262)" fill="#E71300" font-family="'Courier'" font-size="8">D</text>
<text transform="matrix(1 0 0 1 267.5 139.3262)" fill="#E71300" font-family="'Courier'" font-size="8">E</text>
<text transform="matrix(1 0 0 1 334.501 139.3262)" fill="#E71300" font-family="'Courier'" font-size="8">F</text>
<g>
	<path d="M203.177,172.443l-5.575,6.299l-5.435-6.312c-0.424-0.49-1.163-0.548-1.651-0.121c-0.49,0.418-0.545,1.155-0.123,1.648
		l6.311,7.332c0.219,0.253,0.54,0.402,0.875,0.402c0.343,0.002,0.662-0.139,0.884-0.393l6.47-7.308
		c0.426-0.484,0.383-1.222-0.103-1.653C204.344,171.912,203.607,171.954,203.177,172.443"/>
	<path d="M198.762,180.572l0.026-21.563c0.003-0.646-0.521-1.17-1.168-1.17c-0.644-0.002-1.167,0.521-1.172,1.167l-0.029,21.564
		c0,0.643,0.522,1.172,1.167,1.174C198.232,181.744,198.759,181.221,198.762,180.572"/>
</g>
<g>
	<g>
		<path fill="#070606" d="M298.328,195.127v-13.205c0-0.73-0.592-1.32-1.318-1.32c-0.729,0-1.32,0.59-1.32,1.32v13.205
			c0,0.73,0.593,1.32,1.32,1.32C297.736,196.447,298.328,195.857,298.328,195.127"/>
		<path fill="#070606" d="M289.078,183.24h15.857c0.729,0,1.317-0.588,1.317-1.318s-0.588-1.32-1.317-1.32h-15.857
			c-0.727,0-1.318,0.59-1.318,1.32S288.354,183.24,289.078,183.24"/>
	</g>
	<g>
		<polyline fill="#808080" points="160.382,199.623 176.532,199.623 188.939,194.337 176.532,189.057 160.382,189.057 
			160.382,199.623 		"/>
		<path fill="#070606" d="M160.382,199.623v1.318h16.15l0.518-0.104l12.408-5.286c0.485-0.203,0.804-0.685,0.804-1.214
			c0-0.528-0.316-1.007-0.807-1.214l-12.405-5.28l-0.518-0.106h-16.15c-0.355,0-0.691,0.145-0.937,0.389
			c-0.248,0.245-0.386,0.588-0.386,0.934v10.565c0,0.349,0.138,0.688,0.386,0.933c0.245,0.248,0.581,0.387,0.937,0.387V199.623
			h1.318v-9.247h14.561l9.308,3.964l-9.308,3.961h-15.879V199.623h1.318H160.382"/>
	</g>
	<g>
		<path fill="#070606" d="M115.579,195.626v1.321h10.571c0.349,0,0.688-0.141,0.936-0.393c0.245-0.244,0.386-0.58,0.386-0.93v-1.518
			c0.012-2.166-0.829-3.953-2.102-5.114c-1.27-1.169-2.906-1.731-4.506-1.731c-1.603,0-3.236,0.562-4.506,1.731
			c-1.27,1.161-2.107,2.948-2.102,5.114v1.518c0,0.35,0.141,0.686,0.385,0.93c0.251,0.252,0.587,0.393,0.937,0.393L115.579,195.626
			h1.32v-1.519c0.012-1.517,0.52-2.488,1.248-3.172c0.731-0.676,1.737-1.033,2.716-1.033s1.988,0.357,2.716,1.033
			c0.722,0.684,1.242,1.655,1.251,3.172v0.197h-9.253v1.321h1.321H115.579"/>
		<g>
			<path fill="#070606" d="M104.308,177.752l3.059,2.695l-3.046,2.628c-0.554,0.478-0.612,1.309-0.138,1.862
				c0.477,0.554,1.309,0.611,1.863,0.138l4.188-3.615c0.291-0.251,0.456-0.612,0.456-0.994c0.003-0.383-0.156-0.743-0.447-0.993
				l-4.185-3.699c-0.547-0.479-1.383-0.432-1.866,0.119C103.708,176.438,103.764,177.271,104.308,177.752"/>
			<path fill="#070606" d="M97.107,195.127v-13.202h10.565c0.731,0,1.321-0.594,1.321-1.321c0-0.729-0.59-1.322-1.321-1.322H95.786
				c-0.349,0-0.691,0.143-0.936,0.387c-0.245,0.245-0.385,0.588-0.385,0.938v14.522c0,0.729,0.59,1.321,1.321,1.321
				C96.514,196.447,97.107,195.855,97.107,195.127"/>
		</g>
		
			<line fill="none" stroke="#070606" stroke-width="3" stroke-miterlimit="10" x1="94.455" y1="195.447" x2="126.124" y2="195.447"/>
	</g>
	<text transform="matrix(1 0 0 1 76.1948 196.7148)" fill="#E71300" font-family="'Courier'" font-size="8">A</text>
	<text transform="matrix(1 0 0 1 139.7002 196.7148)" fill="#E71300" font-family="'Courier'" font-size="8">C</text>
	<text transform="matrix(1 0 0 1 200.9648 196.7148)" fill="#E71300" font-family="'Courier'" font-size="8">D</text>
	<text transform="matrix(1 0 0 1 262.2285 196.7148)" fill="#E71300" font-family="'Courier'" font-size="8">E</text>
	<text transform="matrix(1 0 0 1 323.4922 196.7148)" fill="#E71300" font-family="'Courier'" font-size="8">F</text>
	<text transform="matrix(1 0 0 1 84.5342 208.8164)" font-family="'Helvetica'" font-size="6">Promoter + 5’UTR</text>
	<text transform="matrix(1 0 0 1 150.9971 208.8164)" font-family="'Helvetica'" font-size="6">CDS (no STOP)</text>
	<text transform="matrix(1 0 0 1 275.9971 208.8164)" font-family="'Helvetica'" font-size="6">3’UT</text>
	<text transform="matrix(1 0 0 1 288.665 208.8164)" font-family="'Helvetica'" font-size="6">R</text>
	<text transform="matrix(1 0 0 1 292.8779 208.8164)" font-family="'Helvetica'" font-size="6"> + Terminator</text>
	<polygon fill="#00E769" stroke="#000000" stroke-width="2.6274" stroke-miterlimit="10" points="234.441,199.719 246.879,194.426 
		234.441,189.129 216.757,189.129 226.301,194.637 217.496,199.719 	"/>
	<text transform="matrix(1 0 0 1 215.4971 208.8164)" font-family="'Helvetica'" font-size="6">CTAG/3xSTOP</text>
</g>
<g>
	<path fill="none" stroke="#03B900" stroke-miterlimit="10" stroke-dasharray="2.0257,2.0257" d="M134.981,57.333
		c0,0.552-0.448,1-1,1h-26.333c-0.552,0-1-0.448-1-1v-7c0-0.552,0.448-1,1-1h26.333c0.552,0,1,0.448,1,1V57.333z"/>
</g>
<g>
	<g>
		<line fill="none" stroke="#03B900" stroke-miterlimit="10" x1="121.786" y1="58.526" x2="121.786" y2="59.399"/>
		
			<line fill="none" stroke="#03B900" stroke-miterlimit="10" stroke-dasharray="1.7406,1.7406" x1="121.786" y1="61.14" x2="121.786" y2="109.006"/>
		<line fill="none" stroke="#03B900" stroke-miterlimit="10" x1="121.786" y1="109.876" x2="121.786" y2="110.75"/>
	</g>
</g>
<text transform="matrix(1 0 0 1 116.7754 117.9902)" font-family="'HelveticaNeue-Medium'" font-size="6">TBI</text>
<text transform="matrix(1 0 0 1 114.8286 125.1895)" font-family="'HelveticaNeue-Medium'" font-size="6">2019</text>
<text transform="matrix(1 0 0 1 5.4268 131.3242)" font-family="'Helvetica'" font-size="6">Terminal-overhang</text>
<text transform="matrix(1 0 0 1 312.5137 131.3242)" font-family="'Helvetica'" font-size="6">Terminal-overhang</text>
<text transform="matrix(1 0 0 1 1.0176 198)" font-family="'HelveticaNeue-Medium'" font-size="6">For Loop &amp; uLoop</text>
<text transform="matrix(1 0 0 1 111.252 149.043)" font-family="'HelveticaNeue-Medium'" font-size="6">TACT</text>
<text transform="matrix(1 0 0 1 117.1748 139.3301)" fill="#E71300" font-family="'Courier'" font-size="8">B</text>
</svg>
