<?xml version="1.0" encoding="utf-8"?>
<!-- Generator: Adobe Illustrator 16.0.4, SVG Export Plug-In . SVG Version: 6.00 Build 0)  -->
<!DOCTYPE svg PUBLIC "-//W3C//DTD SVG 1.1//EN" "http://www.w3.org/Graphics/SVG/1.1/DTD/svg11.dtd">
<svg version="1.1" id="Layer_1" xmlns="http://www.w3.org/2000/svg" xmlns:xlink="http://www.w3.org/1999/xlink" x="0px" y="0px"
	 width="373px" height="225px" viewBox="0 0 373 225" enable-background="new 0 0 373 225" xml:space="preserve">
<line fill="none" stroke="#000000" stroke-width="1.315" stroke-linejoin="round" stroke-miterlimit="10" x1="346.229" y1="27.144" x2="346.229" y2="102.119"/>
<line fill="none" stroke="#000000" stroke-width="1.315" stroke-linejoin="round" stroke-miterlimit="10" x1="32.525" y1="26.924" x2="32.525" y2="101.898"/>
<path fill="none" stroke="#939393" stroke-width="0.658" stroke-linejoin="round" stroke-miterlimit="10" stroke-dasharray="0.6577,0.6577" d="
	M209.899,58.526v34.609 M180.584,58.526v34.609 M240.449,58.526v34.609 M92.154,58.526v34.609 M150.804,58.526v36.399
	 M62.625,58.526v44.03 M269.385,59.403v34.609"/>
<rect x="243.231" y="62.687" fill="none" stroke="#202E58" stroke-width="0.658" stroke-miterlimit="10" width="23.096" height="8.39"/>
<line fill="none" stroke="#000000" stroke-width="1.315" stroke-linejoin="round" stroke-miterlimit="10" x1="299.308" y1="26.721" x2="299.308" y2="91.089"/>
<rect x="125.025" y="12.246" fill="#CAD7E5" width="26.303" height="11.877"/>
<line fill="none" stroke="#000000" stroke-width="1.315" stroke-linejoin="round" stroke-miterlimit="10" x1="121.678" y1="26.71" x2="121.678" y2="89.097"/>
<rect x="35.626" y="89.336" fill="#F1F916" width="307.411" height="13.076"/>
<text transform="matrix(1 0 0 1 44.8159 98.5054)"><tspan x="0" y="0" fill="#4D5B15" font-family="'Arial-BoldMT'" font-size="6.5767">A1</tspan><tspan x="8.407" y="0" fill="#4D5B15" font-family="'Arial-BoldMT'" font-size="6.5767" letter-spacing="19"> </tspan><tspan x="29.28" y="0" fill="#4D5B15" font-family="'Arial-BoldMT'" font-size="6.5767">A2</tspan><tspan x="37.688" y="0" fill="#4D5B15" font-family="'Arial-BoldMT'" font-size="6.5767" letter-spacing="19"> </tspan><tspan x="58.561" y="0" fill="#4D5B15" font-family="'Arial-BoldMT'" font-size="6.5767">A3 </tspan></text>
<text transform="matrix(1 0 0 1 132.6729 98.5054)"><tspan x="0" y="0" fill="#202E58" font-family="'Arial-BoldMT'" font-size="6.5767">B1</tspan><tspan x="8.407" y="0" fill="#202E58" font-family="'Arial-BoldMT'" font-size="6.5767" letter-spacing="19"> </tspan><tspan x="29.287" y="0" fill="#202E58" font-family="'Arial-BoldMT'" font-size="6.5767">B2</tspan><tspan x="37.694" y="0" fill="#202E58" font-family="'Arial-BoldMT'" font-size="6.5767" letter-spacing="19"> </tspan><tspan x="58.574" y="0" fill="#202E58" font-family="'Arial-BoldMT'" font-size="6.5767">B3</tspan><tspan x="66.981" y="0" fill="#202E58" font-family="'Arial-BoldMT'" font-size="6.5767" letter-spacing="19"> </tspan><tspan x="87.861" y="0" fill="#202E58" font-family="'Arial-BoldMT'" font-size="6.5767">B4</tspan><tspan x="96.269" y="0" fill="#202E58" font-family="'Arial-BoldMT'" font-size="6.5767" letter-spacing="19"> </tspan><tspan x="117.148" y="0" fill="#202E58" font-family="'Arial-BoldMT'" font-size="6.5767">B5</tspan><tspan x="125.556" y="0" fill="#202E58" font-family="'Arial-BoldMT'" font-size="6.5767" letter-spacing="19"> </tspan><tspan x="146.436" y="0" fill="#202E58" font-family="'Arial-BoldMT'" font-size="6.5767">B6 </tspan></text>
<text transform="matrix(1 0 0 1 317.5947 97.8486)" fill="#4B2616" font-family="'Arial-BoldMT'" font-size="6.5767">C1 </text>
<rect x="36.01" y="28.71" fill="#4D5B15" width="82.849" height="11.878"/>
<text transform="matrix(1 0 0 1 67.3364 33.6343)" fill="#FFFFFF" font-family="'ArialMT'" font-size="5.2614">5&apos; Non</text>
<text transform="matrix(1 0 0 1 61.1143 39.9478)" fill="#FFFFFF" font-family="'ArialMT'" font-size="5.2614">transcribed </text>
<rect x="124.791" y="28.711" fill="#202E58" width="171.845" height="11.877"/>
<text transform="matrix(1 0 0 1 182.4463 37.2515)" fill="#FFFFFF" font-family="'ArialMT'" font-size="5.2614">Transcribed region </text>
<rect x="302.131" y="28.71" fill="#4B2616" width="41.062" height="11.878"/>
<text transform="matrix(1 0 0 1 315.9268 33.3511)" fill="#FFFFFF" font-family="'ArialMT'" font-size="5.2614">3&apos; Non</text>
<text transform="matrix(1 0 0 1 309.7051 39.6646)" fill="#FFFFFF" font-family="'ArialMT'" font-size="5.2614">transcribed </text>
<rect x="36.01" y="75.959" fill="#A8798C" width="141.868" height="8.39"/>
<rect x="36.01" y="75.959" fill="none" stroke="#000000" stroke-width="0.658" stroke-miterlimit="10" width="141.868" height="8.39"/>
<text transform="matrix(1 0 0 1 90.9619 82.7866)" font-family="'Arial-BoldMT'" font-size="6.5767">PROM + 5UTR </text>
<rect x="183.879" y="75.905" fill="#A8798C" width="82.944" height="8.389"/>
<rect x="183.879" y="75.905" fill="none" stroke="#000000" stroke-width="0.658" stroke-miterlimit="10" width="82.944" height="8.39"/>
<text transform="matrix(1 0 0 1 216.0342 82.7866)" font-family="'Arial-BoldMT'" font-size="6.5767">CDS </text>
<rect x="272.753" y="75.905" fill="#A8798C" width="70.341" height="8.389"/>
<rect x="272.753" y="75.905" fill="none" stroke="#000000" stroke-width="0.658" stroke-miterlimit="10" width="70.341" height="8.39"/>
<text transform="matrix(1 0 0 1 288.2695 82.6763)" font-family="'Arial-BoldMT'" font-size="6.5767">3UTR + TERM </text>
<rect x="21.822" y="45.118" fill="#FFFFFF" width="330.764" height="13.373"/>
<text transform="matrix(1 0 0 1 21.9541 55.9951)" font-family="'HelveticaNeue-Bold'" font-size="6.5767">GGAG</text>
<rect x="53.007" y="46.764" fill="#FFFFFF" width="26.536" height="12.568"/>
<text transform="matrix(1 0 0 1 52.1489 55.9951)" font-family="'HelveticaNeue-Bold'" font-size="6.5767">TGAC</text>
<rect x="79.543" y="46.764" fill="#FFFFFF" width="26.536" height="12.568"/>
<text transform="matrix(1 0 0 1 81.6733 55.9951)"><tspan x="0" y="0" font-family="'HelveticaNeue-Bold'" font-size="6.5767">TCC</tspan><tspan x="13.765" y="0" font-family="'HelveticaNeue-Bold'" font-size="6.5767" letter-spacing="11">C</tspan><tspan x="30.259" y="0" font-family="'HelveticaNeue-Bold'" font-size="6.5767">TACT</tspan></text>
<text transform="matrix(1 0 0 1 194.3984 53.5283)" font-family="'HelveticaNeue-Bold'" font-size="5.2614">AGCC</text>
<rect x="218.822" y="46.763" fill="none" stroke="#FFFFFF" stroke-width="0.658" stroke-linejoin="round" stroke-miterlimit="10" width="34.828" height="10.776"/>
<text transform="matrix(1 0 0 1 178.3633 49.7314)" font-family="'HelveticaNeue-Italic'" font-size="5.2614">Met</text>
<text transform="matrix(1 0 0 1 201.0361 49.1562)" font-family="'HelveticaNeue-Italic'" font-size="4.6037">Ala</text>
<text transform="matrix(1 0 0 1 237.8359 49.7314)" font-family="'HelveticaNeue-Italic'" font-size="5.2614">Ser</text>
<text transform="matrix(1 0 0 1 253.3926 49.9121)" font-family="'HelveticaNeue-Italic'" font-size="5.2614">Stop</text>
<rect x="150.907" y="12.345" fill="#6185B8" width="119.174" height="11.877"/>
<text transform="matrix(1 0 0 1 186.3921 19.6865)" fill="#FFFFFF" font-family="'ArialMT'" font-size="5.2614">Coding sequence </text>
<rect x="269.564" y="12.345" fill="#0A1435" width="26.645" height="11.877"/>
<text transform="matrix(1 0 0 1 276.6504 19.9414)" fill="#CAD7E5" font-family="'ArialMT'" font-size="5.2614">3&apos;UTR </text>
<path fill-rule="evenodd" clip-rule="evenodd" d="M115.409,28.694V7.27c0-0.194,0.17-0.352,0.38-0.352h21.585V5.061l6.387,3.441
	l-6.387,3.442v-1.858h-18.54v18.608H115.409"/>
<text transform="matrix(1 0 0 1 137.2007 55.9951)" font-family="'HelveticaNeue-Bold'" font-size="6.5767">CCAT(g)</text>
<text transform="matrix(1 0 0 1 151.3506 49.7314)" font-family="'HelveticaNeue-Italic'" font-size="5.2614">Met</text>
<rect x="36.01" y="62.907" fill="none" stroke="#4D5B15" stroke-width="0.658" stroke-miterlimit="10" width="23.096" height="8.389"/>
<text transform="matrix(1 0 0 1 40.209 69.4028)" fill="#4D5B15" font-family="'Arial-BoldMT'" font-size="6.5767">DIST </text>
<rect x="65.694" y="62.907" fill="none" stroke="#4D5B15" stroke-width="0.658" stroke-miterlimit="10" width="23.096" height="8.389"/>
<text transform="matrix(1 0 0 1 67.9883 69.8413)" fill="#4D5B15" font-family="'Arial-BoldMT'" font-size="6.5767">PROX </text>
<rect x="95.377" y="62.907" fill="none" stroke="#4D5B15" stroke-width="0.658" stroke-miterlimit="10" width="23.096" height="8.389"/>
<text transform="matrix(1 0 0 1 97.6704 69.8413)" fill="#4D5B15" font-family="'Arial-BoldMT'" font-size="6.5767">CORE</text>
<rect x="154.355" y="62.907" fill="none" stroke="#202E58" stroke-width="0.658" stroke-miterlimit="10" width="23.096" height="8.389"/>
<text transform="matrix(1 0 0 1 157.0703 69.8413)" fill="#202E58" font-family="'Arial-BoldMT'" font-size="6.5767">NTAG</text>
<rect x="184.064" y="62.907" fill="none" stroke="#202E58" stroke-width="0.658" stroke-miterlimit="10" width="23.096" height="8.389"/>
<text transform="matrix(1 0 0 1 186.9653 69.8413)"><tspan x="0" y="0" fill="#202E58" font-family="'Arial-BoldMT'" font-size="6.5767">CDS1</tspan><tspan x="17.543" y="0" fill="#202E58" font-family="'Arial-BoldMT'" font-size="6.5767" letter-spacing="39"> </tspan><tspan x="58.667" y="0" fill="#202E58" font-family="'Arial-BoldMT'" font-size="6.5767">CTAG </tspan></text>
<rect x="213.638" y="62.686" fill="none" stroke="#202E58" stroke-width="0.658" stroke-miterlimit="10" width="23.095" height="8.389"/>
<text transform="matrix(1 0 0 1 216.8301 69.8413)" fill="#202E58" font-family="'Arial-BoldMT'" font-size="6.5767">CDS2</text>
<rect x="273.082" y="62.687" fill="none" stroke="#202E58" stroke-width="0.658" stroke-miterlimit="10" width="23.096" height="8.39"/>
<text transform="matrix(1 0 0 1 275.9736 69.8413)" fill="#202E58" font-family="'Arial-BoldMT'" font-size="6.5767">3UTR </text>
<rect x="302.766" y="62.686" fill="none" stroke="#4B2616" stroke-width="0.658" stroke-miterlimit="10" width="40.251" height="8.389"/>
<text transform="matrix(1 0 0 1 313.4023 69.8413)" fill="#4B2616" font-family="'Arial-BoldMT'" font-size="6.5767">TERM </text>
<rect x="124.629" y="62.907" fill="none" stroke="#202E58" stroke-width="0.658" stroke-miterlimit="10" width="23.376" height="8.389"/>
<text transform="matrix(1 0 0 1 127.9355 69.8413)" fill="#202E58" font-family="'Arial-BoldMT'" font-size="6.5767">5UTR </text>
<text transform="matrix(1 0 0 1 131.0596 19.5894)" fill="#0A1435" font-family="'ArialMT'" font-size="5.2614">5&apos;UTR </text>
<text transform="matrix(1 0 0 1 171.2534 55.9951)" font-family="'HelveticaNeue-Bold'" font-size="6.5767">AATG</text>
<text transform="matrix(1 0 0 1 115.1719 6.0996)" font-family="'HelveticaNeue-Bold'" font-size="6.5767">TSS</text>
<text transform="matrix(1 0 0 1 305.0186 21.9741)" font-family="'HelveticaNeue-Bold'" font-size="6.5767">PAS</text>
<polyline points="318.068,29.109 318.131,28.999 314.653,22.975 307.697,22.975 304.218,28.999 304.282,29.109 318.068,29.109 "/>
<text transform="matrix(1 0 0 1 212.0664 56.1938)" font-family="'HelveticaNeue-Bold'" font-size="5.2614">AGTT</text>
<text transform="matrix(1 0 0 1 215.3701 51.1562)" font-family="'HelveticaNeue-Italic'" font-size="4.6037">Gly</text>
<line fill="#E72000" stroke="#000000" stroke-width="0.5" stroke-miterlimit="10" x1="208.001" y1="56.321" x2="216.335" y2="46.321"/>
<text transform="matrix(1 0 0 1 21.9463 149.0381)" font-family="'HelveticaNeue-Medium'" font-size="6">GGAG</text>
<text transform="matrix(1 0 0 1 261.7803 149.0391)"><tspan x="0" y="0" font-family="'HelveticaNeue-Medium'" font-size="6">GCT</tspan><tspan x="12.444" y="0" font-family="'HelveticaNeue-Medium'" font-size="6" letter-spacing="8">T</tspan><tspan x="24.624" y="0" font-family="'HelveticaNeue-Medium'" font-size="6">          </tspan><tspan x="41.304" y="0" font-family="'HelveticaNeue-Medium'" font-size="6" letter-spacing="24"> </tspan><tspan x="67.319" y="0" font-family="'HelveticaNeue-Medium'" font-size="6">CGCT</tspan></text>
<text transform="matrix(1 0 0 1 171.2456 149.0381)" font-family="'HelveticaNeue-Medium'" font-size="6">AATG</text>
<text transform="matrix(1 0 0 1 212.0586 149.0381)" font-family="'HelveticaNeue-Medium'" font-size="6">AGTT</text>
<path fill="none" stroke="#E71900" stroke-width="0.8" stroke-miterlimit="10" d="M44.5,57.36c0,0.353-0.448,0.64-1,0.64H20
	c-0.552,0-1-0.287-1-0.64v-6.721c0-0.353,0.448-0.64,1-0.64h23.5c0.552,0,1,0.287,1,0.64V57.36z"/>
<path fill="none" stroke="#E71900" stroke-width="0.8383" stroke-miterlimit="10" d="M193.493,57.293
	c0,0.354-0.491,0.641-1.098,0.641h-25.804c-0.606,0-1.098-0.287-1.098-0.641v-6.721c0-0.353,0.492-0.639,1.098-0.639h25.804
	c0.606,0,1.098,0.286,1.098,0.639V57.293z"/>
<text transform="matrix(1 0 0 1 230.2891 55.9951)"><tspan x="0" y="0" font-family="'HelveticaNeue-Bold'" font-size="6.5767">TTC</tspan><tspan x="12.91" y="0" font-family="'HelveticaNeue-Bold'" font-size="6.5767" letter-spacing="7">G</tspan><tspan x="25.044" y="0" font-family="'HelveticaNeue-Bold'" font-size="6.5767">(*)GCT</tspan><tspan x="45.497" y="0" font-family="'HelveticaNeue-Bold'" font-size="6.5767" letter-spacing="9">T</tspan><tspan x="58.966" y="0" font-family="'HelveticaNeue-Bold'" font-size="6.5767">GGT</tspan><tspan x="72.968" y="0" font-family="'HelveticaNeue-Bold'" font-size="6.5767" letter-spacing="28">A</tspan><tspan x="105.607" y="0" font-family="'HelveticaNeue-Bold'" font-size="6.5767">CGCT</tspan></text>
<path fill="none" stroke="#E71900" stroke-width="0.6435" stroke-miterlimit="10" d="M227.517,58.298
	c0,0.354-0.289,0.641-0.646,0.641h-15.206c-0.357,0-0.646-0.287-0.646-0.641v-6.721c0-0.353,0.289-0.639,0.646-0.639h15.206
	c0.357,0,0.646,0.286,0.646,0.639V58.298z"/>
<path fill="none" stroke="#E71900" stroke-width="0.8383" stroke-miterlimit="10" d="M282,57.359c0,0.354-0.492,0.641-1.098,0.641
	h-25.805c-0.605,0-1.098-0.287-1.098-0.641v-6.721c0-0.353,0.492-0.639,1.098-0.639h25.805c0.605,0,1.098,0.286,1.098,0.639V57.359z
	"/>
<path fill="none" stroke="#E71900" stroke-width="0.8383" stroke-miterlimit="10" d="M360,56.859c0,0.354-0.492,0.641-1.098,0.641
	h-25.805c-0.605,0-1.098-0.287-1.098-0.641v-6.721c0-0.353,0.492-0.639,1.098-0.639h25.805c0.605,0,1.098,0.286,1.098,0.639V56.859z
	"/>
<g>
	<path d="M203.177,124.432l-5.576,6.299l-5.434-6.312c-0.424-0.491-1.163-0.548-1.651-0.123c-0.491,0.419-0.545,1.156-0.124,1.65
		l6.311,7.332c0.219,0.253,0.54,0.402,0.875,0.402c0.343,0.002,0.662-0.139,0.884-0.392l6.47-7.308
		c0.425-0.484,0.381-1.222-0.103-1.654C204.345,123.901,203.607,123.942,203.177,124.432"/>
	<path d="M198.761,132.561l0.027-21.564c0.003-0.645-0.521-1.169-1.168-1.169c-0.644-0.002-1.167,0.521-1.172,1.167l-0.029,21.564
		c0,0.644,0.523,1.172,1.167,1.175C198.233,133.733,198.759,133.209,198.761,132.561"/>
</g>
<text transform="matrix(1 0 0 1 28.167 139.3252)" fill="#E71300" font-family="'Courier'" font-size="8">A</text>
<text transform="matrix(1 0 0 1 177.1685 139.3252)" fill="#E71300" font-family="'Courier'" font-size="8">C</text>
<text transform="matrix(1 0 0 1 217.5 139.3252)" fill="#E71300" font-family="'Courier'" font-size="8">D</text>
<text transform="matrix(1 0 0 1 267.5 139.3252)" fill="#E71300" font-family="'Courier'" font-size="8">E</text>
<text transform="matrix(1 0 0 1 334.501 139.3252)" fill="#E71300" font-family="'Courier'" font-size="8">F</text>
<g>
	<path d="M203.177,172.443l-5.576,6.299l-5.434-6.312c-0.424-0.491-1.163-0.548-1.651-0.122c-0.491,0.418-0.545,1.156-0.124,1.649
		l6.311,7.332c0.219,0.253,0.54,0.402,0.875,0.402c0.343,0.003,0.662-0.139,0.884-0.392l6.47-7.308
		c0.426-0.484,0.382-1.222-0.103-1.653C204.344,171.912,203.607,171.954,203.177,172.443"/>
	<path d="M198.761,180.572l0.027-21.563c0.003-0.645-0.521-1.17-1.168-1.17c-0.644-0.002-1.167,0.521-1.172,1.167l-0.029,21.564
		c0,0.643,0.523,1.172,1.167,1.174C198.233,181.744,198.759,181.221,198.761,180.572"/>
</g>
<g>
	<g>
		<path fill="#070606" d="M298.328,195.127v-13.205c0-0.731-0.591-1.321-1.318-1.321c-0.729,0-1.321,0.59-1.321,1.321v13.205
			c0,0.731,0.593,1.321,1.321,1.321C297.737,196.448,298.328,195.858,298.328,195.127"/>
		<path fill="#070606" d="M289.078,183.24h15.857c0.73,0,1.318-0.587,1.318-1.318s-0.588-1.321-1.318-1.321h-15.857
			c-0.726,0-1.318,0.59-1.318,1.321S288.353,183.24,289.078,183.24"/>
	</g>
	<g>
		<polyline fill="#808080" points="160.382,199.623 176.532,199.623 188.94,194.337 176.532,189.057 160.382,189.057 
			160.382,199.623 		"/>
		<path fill="#070606" d="M160.382,199.623v1.318h16.15l0.518-0.104l12.408-5.286c0.486-0.204,0.804-0.685,0.804-1.214
			s-0.317-1.007-0.807-1.214l-12.405-5.28l-0.518-0.107h-16.15c-0.355,0-0.691,0.145-0.937,0.389
			c-0.248,0.245-0.386,0.588-0.386,0.933v10.566c0,0.349,0.138,0.688,0.386,0.933c0.245,0.248,0.581,0.386,0.937,0.386V199.623
			h1.318v-9.247h14.561l9.308,3.964l-9.308,3.961h-15.879V199.623h1.318H160.382"/>
	</g>
	<g>
		<path fill="#070606" d="M115.579,195.626v1.321h10.571c0.349,0,0.688-0.141,0.936-0.392c0.245-0.245,0.386-0.581,0.386-0.93
			v-1.518c0.012-2.165-0.829-3.952-2.102-5.114c-1.27-1.169-2.906-1.731-4.506-1.731c-1.603,0-3.236,0.562-4.506,1.731
			c-1.27,1.162-2.107,2.949-2.102,5.114v1.518c0,0.349,0.141,0.685,0.385,0.93c0.251,0.251,0.587,0.392,0.937,0.392V195.626h1.321
			v-1.518c0.012-1.517,0.52-2.489,1.248-3.172c0.731-0.676,1.737-1.034,2.716-1.034s1.988,0.358,2.716,1.034
			c0.722,0.683,1.242,1.655,1.251,3.172v0.196h-9.253V195.626h1.321H115.579"/>
		<g>
			<path fill="#070606" d="M104.308,177.752l3.059,2.695l-3.046,2.628c-0.554,0.477-0.612,1.309-0.138,1.862
				c0.477,0.554,1.309,0.612,1.863,0.138l4.188-3.615c0.291-0.251,0.456-0.612,0.456-0.994c0.003-0.383-0.156-0.743-0.447-0.994
				l-4.185-3.698c-0.547-0.48-1.383-0.432-1.866,0.119C103.708,176.437,103.764,177.271,104.308,177.752"/>
			<path fill="#070606" d="M97.107,195.127v-13.202h10.565c0.731,0,1.321-0.594,1.321-1.321c0-0.729-0.59-1.322-1.321-1.322H95.786
				c-0.349,0-0.691,0.142-0.936,0.386c-0.245,0.245-0.385,0.588-0.385,0.937v14.523c0,0.729,0.59,1.321,1.321,1.321
				C96.514,196.448,97.107,195.855,97.107,195.127"/>
		</g>
		
			<line fill="none" stroke="#070606" stroke-width="3" stroke-miterlimit="10" x1="94.455" y1="195.447" x2="126.124" y2="195.447"/>
	</g>
	<text transform="matrix(1 0 0 1 76.1948 196.7139)" fill="#E71300" font-family="'Courier'" font-size="8">A</text>
	<text transform="matrix(1 0 0 1 139.7002 196.7139)" fill="#E71300" font-family="'Courier'" font-size="8">C</text>
	<text transform="matrix(1 0 0 1 200.9648 196.7148)" fill="#E71300" font-family="'Courier'" font-size="8">D</text>
	<text transform="matrix(1 0 0 1 262.2275 196.7148)" fill="#E71300" font-family="'Courier'" font-size="8">E</text>
	<text transform="matrix(1 0 0 1 323.4912 196.7148)" fill="#E71300" font-family="'Courier'" font-size="8">F</text>
	<text transform="matrix(1 0 0 1 84.5342 208.8174)" font-family="'Helvetica'" font-size="6">Promoter + 5’UTR</text>
	<text transform="matrix(1 0 0 1 150.9971 208.8174)" font-family="'Helvetica'" font-size="6">CDS (no STOP)</text>
	<text transform="matrix(1 0 0 1 275.9971 208.8174)"><tspan x="0" y="0" font-family="'Helvetica'" font-size="6">3’UT</tspan><tspan x="12.668" y="0" font-family="'Helvetica'" font-size="6">R</tspan><tspan x="16.881" y="0" font-family="'Helvetica'" font-size="6"> + Terminator</tspan></text>
	<polygon fill="#00E769" stroke="#000000" stroke-width="2.6274" stroke-miterlimit="10" points="234.442,199.719 246.879,194.426 
		234.442,189.129 216.757,189.129 226.301,194.636 217.496,199.719 	"/>
	<text transform="matrix(1 0 0 1 215.4971 208.8174)" font-family="'Helvetica'" font-size="6">CTAG/3xSTOP</text>
</g>
<g>
	<path fill="none" stroke="#03B900" stroke-miterlimit="10" stroke-dasharray="2.0257,2.0257" d="M164,57.333c0,0.552-0.448,1-1,1
		h-26.333c-0.552,0-1-0.448-1-1v-7c0-0.552,0.448-1,1-1H163c0.552,0,1,0.448,1,1V57.333z"/>
</g>
<g>
	<g>
		<line fill="none" stroke="#03B900" stroke-miterlimit="10" x1="150.804" y1="58.526" x2="150.804" y2="59.526"/>
		
			<line fill="none" stroke="#03B900" stroke-miterlimit="10" stroke-dasharray="2.0144,2.0144" x1="150.804" y1="61.54" x2="150.804" y2="124.993"/>
		<line fill="none" stroke="#03B900" stroke-miterlimit="10" x1="150.804" y1="126" x2="150.804" y2="127"/>
	</g>
</g>
<text transform="matrix(1 0 0 1 144.793 134.0005)"><tspan x="0" y="0" font-family="'HelveticaNeue-Medium'" font-size="6">TBI</tspan><tspan x="-1.947" y="7.2" font-family="'HelveticaNeue-Medium'" font-size="6">2019</tspan></text>
<text transform="matrix(1 0 0 1 5.4268 131.3242)" font-family="'Helvetica'" font-size="6">Terminal-overhang</text>
<text transform="matrix(1 0 0 1 312.5137 131.3247)" font-family="'Helvetica'" font-size="6">Terminal-overhang</text>
<text transform="matrix(1 0 0 1 1.0176 198)" font-family="'HelveticaNeue-Medium'" font-size="6">For Loop &amp; uLoop</text>
</svg>
